# AST/ASF file generated using VICON BodyLanguage
# -----------------------------------------------
:version 1.10
:name VICON
:units
  mass 1.0
  length 0.45
  angle deg
:documentation
   .ast/.asf automatically generated from VICON data using
   VICON BodyBuilder and BodyLanguage model FoxedUp or BRILLIANT.MOD
:root
   order TX TY TZ RX RY RZ
   axis XYZ
   position 0 0 0  
   orientation 0 0 0 
:bonedata
  begin
     id 1 
     name lhipjoint
     direction 0.645893 -0.654526 0.392961 
     length 2.38111 
     axis 0 0 0  XYZ
  end
  begin
     id 2 
     name lfemur
     direction 0.34202 -0.939693 0  
     length 6.6822  
     axis 0 0 20  XYZ
    dof rx ry rz
    limits (-160.0 20.0)
           (-70.0 70.0)
           (-60.0 70.0)
  end
  begin
     id 3 
     name ltibia
     direction 0.34202 -0.939693 0   
     length 6.93904   
     axis 0 0 20   XYZ
    dof rx
    limits (-10.0 170.0)
  end
  begin
     id 4 
     name lfoot
     direction 0.0694967 -0.190941 0.979138   
     length 2.13616   
     axis -90 7.62852e-016 20   XYZ
    dof rx rz
    limits (-45.0 90.0)
           (-70.0 20.0)
  end
  begin
     id 5 
     name ltoes
     direction 1.535e-011 -4.2202e-011 1   
     length 1.07536   
     axis -90 7.62852e-016 20   XYZ
    dof rx
    limits (-90.0 20.0)
  end
  begin
     id 6 
     name rhipjoint
     direction -0.700219 -0.612087 0.367481   
     length 2.54621  
     axis 0 0 0  XYZ 
  end
  begin
     id 7 
     name rfemur
     direction -0.34202 -0.939693 0   
     length 6.55353   
     axis 0 0 -20   XYZ
    dof rx ry rz
    limits (-160.0 20.0)
           (-70.0 70.0)
           (-70.0 60.0)
  end
  begin
     id 8 
     name rtibia
     direction -0.34202 -0.939693 0   
     length 6.8736   
     axis 0 0 -20   XYZ
    dof rx
    limits (-10.0 170.0)
 end
 begin
     id 9 
     name rfoot
     direction -0.0679995 -0.186827 0.980037   
     length 2.1218  
     axis -90 -7.62852e-016 -20   XYZ
    dof rx rz
    limits (-45.0 90.0)
           (-20.0 70.0)
  end
  begin
     id 10 
     name rtoes
     direction -1.53589e-011 -4.21772e-011 1   
     length 1.06864   
     axis -90 -7.62852e-016 -20   XYZ
    dof rx
    limits (-90.0 20.0)
  end
  begin
     id 11 
     name lowerback
     direction -0.0416607 0.996347 -0.0745409   
     length 2.12205   
     axis 0 0 0   XYZ
    dof rx ry rz
    limits (-20.0 45.0)
           (-30.0 30.0)
           (-30.0 30.0)
  end
  begin
     id 12 
     name upperback
     direction -0.000153993 0.999276 -0.0380568   
     length 2.12759   
     axis 0 0 0   XYZ
    dof rx ry rz
    limits (-20.0 45.0)
           (-30.0 30.0)
           (-30.0 30.0)
  end
  begin
     id 13 
     name thorax
     direction 0.0187671 0.999821 -0.00241421   
     length 2.13704   
     axis 0 0 0   XYZ
    dof rx ry rz
    limits (-20.0 45.0)
           (-30.0 30.0)
           (-30.0 30.0)
  end
  begin
     id 14 
     name lowerneck
     direction 0.0268157 0.964865 0.261374   
     length 1.65253   
     axis 0 0 0   XYZ
    dof rx ry rz
    limits (-20.0 45.0)
           (-30.0 30.0)
           (-30.0 30.0)
  end
  begin
     id 15 
     name upperneck
     direction 0.00263774 0.939908 -0.341418   
     length 1.72375   
     axis 0 0 0   XYZ
    dof rx ry rz
    limits (-20.0 45.0)
           (-30.0 30.0)
           (-30.0 30.0)
  end
  begin
     id 16
     name head
     direction -0.00526001 0.989001 -0.147818  
     length 1.74878  
     axis 0 0 0   XYZ
    dof rx ry rz
    limits (-20.0 45.0)
           (-30.0 30.0)
           (-30.0 30.0)
  end
  begin
     id 17 
     name lclavicle
     direction 0.881214 0.461162 -0.103884  
     length 3.25108  
     axis 0 0 0   XYZ
    dof ry rz
    limits (-20.0 10.0)
           (0.0 20.0)
  end
  begin
     id 18 
     name lhumerus
     direction 1 -4.4899e-011 3.38092e-027   
     length 4.87408   
     axis 180 -30 -90   XYZ
    dof rx ry rz
    limits (-60.0 90.0)
           (-90.0 90.0)
           (-90.0 90.0)
  end
  begin
     id 19
     name lradius
     direction 1 -4.48931e-011 9.96288e-027   
     length 2.76729   
     axis 180 -30 -90   XYZ
    dof rx
    limits (-10.0 170.0)
  end
  begin
     id 20
     name lwrist
     direction 1 -4.4896e-011 1.50617e-026   
     length 1.38364   
     axis -9.31234e-015 90 90   XYZ
    dof ry
    limits (-180.0 0.0)
 end
  begin
     id 21 
     name lhand
     direction 1 -4.49038e-011 3.01286e-026   
     length 0.98922   
     axis -1.92217e-014 90 90   XYZ
    dof rx rz
    limits (-90.0 90.0)
           (-45.0 45.0)
  end
  begin
     id 22 
     name lfingers
     direction 1 -4.49051e-011 6.02588e-026   
     length 0.797535   
     axis -3.84436e-014 90 90   XYZ
    dof rx
    limits (0.0 90.0)
  end
  begin
     id 23
     name lthumb
     direction 0.707107 -6.34901e-011 0.707107   
     length 1.14511   
     axis -90 45 2.19363e-014   XYZ
    dof rx rz
    limits (-45.0 45.0)
           (-45.0 45.0)
  end
  begin
     id 24 
     name rclavicle
     direction -0.893894 0.441652 -0.0767889   
     length 3.29361  
     axis 0 0 0   XYZ 
    dof ry rz
    limits (-10.0 20.0)
           (-20.0 0.0)
  end
  begin
     id 25 
     name rhumerus
     direction -1 -4.48945e-011 8.0491e-028  
     length 4.71404   
     axis 180 30 90   XYZ
    dof rx ry rz
    limits (-90.0 60.0)
           (-90.0 90.0)
           (-90.0 90.0)
  end
  begin
     id 26 
     name rradius
     direction -1 -4.48986e-011 9.27795e-027   
     length 2.83468   
     axis 180 30 90   XYZ
    dof rx
    limits (-10.0 170.0)
  end
  begin
     id 27 
     name rwrist
     direction -1 -4.49029e-011 1.5064e-026   
     length 1.41734   
     axis -9.31234e-015 -90 -90   XYZ
    dof ry
    limits (-180.0 0.0)
  end
  begin
     id 28
     name rhand
     direction -1 -4.48857e-011 3.01165e-026   
     length 0.868195   
     axis -1.92217e-014 -90 -90   XYZ
    dof rx rz
    limits (-90.0 90.0)
           (-45.0 45.0)
  end
  begin
     id 29
     name rfingers
     direction -1 -4.49048e-011 6.02585e-026   
     length 0.699961   
     axis -3.84436e-014 -90 -90   XYZ
    dof rx
    limits (0.0 90.0)
  end
  begin
     id 30
     name rthumb
     direction -0.707107 -6.34854e-011 0.707107   
     length 1.00501   
     axis -90 -45 -2.19363e-014   XYZ
    dof rx rz
    limits (-45.0 45.0)
           (-45.0 45.0)
  end
:hierarchy
  begin
    root lhipjoint rhipjoint lowerback
    lhipjoint lfemur
    lfemur ltibia
    ltibia lfoot
    lfoot ltoes
    rhipjoint rfemur
    rfemur rtibia
    rtibia rfoot
    rfoot rtoes
    lowerback upperback
    upperback thorax
    thorax lowerneck lclavicle rclavicle
    lowerneck upperneck
    upperneck head
    lclavicle lhumerus
    lhumerus lradius
    lradius lwrist
    lwrist lhand lthumb
    lhand lfingers
    rclavicle rhumerus
    rhumerus rradius
    rradius rwrist
    rwrist rhand rthumb
    rhand rfingers
  end

#!OML:ASF H:\ManfredObstacles\Project 1\Capture day 2\Session 1\male.ASF
:FULLY-SPECIFIED
:DEGREES
16
root 15.966 15.4308 20.6722 -172.621 2.67596 174.234
lowerback 0.256874 -1.57691 -9.42623
upperback 1.46965 -1.7372 -3.07021
thorax 1.58932 -0.848339 2.0721
lowerneck -33.789 1.65523 5.2283
upperneck 37.919 1.06345 0.237959
head 20.9163 1.81131 -0.27098
rclavicle 1.31198e-014 2.62396e-014
rhumerus -64.1219 4.69063 -89.3317
rradius 85.9105
rwrist 6.37234
rhand -11.7392 -0.531037
rfingers 7.12502
rthumb 14.3083 -30.018
lclavicle 1.31198e-014 2.62396e-014
lhumerus -41.3555 -26.5267 98.0361
lradius 100.863
lwrist -20.277
lhand -14.6509 5.62718
lfingers 7.12502
lthumb 11.5014 35.2917
rfemur -31.4576 -4.41206 14.8808
rtibia 83.1357
rfoot 2.63471 -19.9909
rtoes -19.6096
lfemur -12.5527 -5.28998 -31.5697
ltibia 38.9959
lfoot -2.2317 18.4862
ltoes -12.3219
17
root 15.9686 15.4951 20.3815 -172.456 2.35308 174.339
lowerback 0.338645 -2.04756 -9.39571
upperback 1.40361 -2.40236 -2.85271
thorax 1.55136 -1.18609 2.2697
lowerneck -33.3688 2.03295 5.53852
upperneck 37.9024 1.71551 -0.160705
head 20.8272 2.03782 -0.3579
rclavicle -1.21259e-014 1.35174e-014
rhumerus -65.1662 4.84976 -88.7557
rradius 86.559
rwrist 6.83246
rhand -10.9923 -1.05073
rfingers 7.12502
rthumb 15.0279 -30.4854
lclavicle -1.21259e-014 1.35174e-014
lhumerus -40.7505 -26.8622 98.0166
lradius 101.501
lwrist -20.1604
lhand -14.7263 5.80411
lfingers 7.12502
lthumb 11.4287 35.4726
rfemur -33.2994 -4.48764 15.1519
rtibia 82.0147
rfoot 1.98108 -20.2355
rtoes -19.5336
lfemur -11.2086 -5.4991 -31.538
ltibia 38.1073
lfoot -1.29897 17.5112
ltoes -12.6016
18
root 15.9725 15.5694 20.0871 -172.234 2.05247 174.458
lowerback 0.359042 -2.50863 -9.36838
upperback 1.30765 -3.05011 -2.62181
thorax 1.52022 -1.51526 2.48095
lowerneck -32.9905 2.41138 5.87253
upperneck 37.8795 2.36304 -0.589797
head 20.7545 2.26172 -0.465975
rclavicle -1.58034e-014 -3.73715e-014
rhumerus -66.175 5.05024 -88.2714
rradius 87.1781
rwrist 6.73452
rhand -10.5713 -1.44571
rfingers 7.12502
rthumb 15.4334 -30.8495
lclavicle -1.58034e-014 -3.73715e-014
lhumerus -40.2837 -27.3047 98.0082
lradius 102.144
lwrist -19.8995
lhand -14.8773 6.03551
lfingers 7.12502
lthumb 11.2831 35.712
rfemur -35.0429 -4.50625 15.426
rtibia 80.4971
rfoot 1.56184 -20.3522
rtoes -19.5079
lfemur -9.92784 -5.63534 -31.4769
ltibia 37.1299
lfoot -0.164161 16.342
ltoes -12.8305
19
root 15.9773 15.6527 19.7888 -171.957 1.78239 174.576
lowerback 0.307586 -2.95677 -9.3434
upperback 1.19773 -3.67197 -2.38858
thorax 1.51709 -1.83206 2.69183
lowerneck -32.8711 2.82842 6.30515
upperneck 37.8542 3.0153 -1.12695
head 20.7646 2.47773 -0.644236
rclavicle 8.64713e-015 -1.66979e-014
rhumerus -67.1039 5.25947 -87.8672
rradius 87.6945
rwrist 6.04494
rhand -10.5613 -1.50657
rfingers 7.12502
rthumb 15.4431 -30.9097
lclavicle 8.64713e-015 -1.66979e-014
lhumerus -39.912 -27.8419 97.9876
lradius 102.768
lwrist -19.5604
lhand -15.0585 6.27721
lfingers 7.12502
lthumb 11.1083 35.9632
rfemur -36.6654 -4.47259 15.6702
rtibia 78.5986
rfoot 1.27827 -20.3603
rtoes -19.5359
lfemur -8.71062 -5.69092 -31.4025
ltibia 36.0558
lfoot 1.17305 14.9832
ltoes -13.0023
20
root 15.9829 15.7435 19.4857 -171.643 1.5417 174.695
lowerback 0.204829 -3.3871 -9.31665
upperback 1.07603 -4.26398 -2.15185
thorax 1.53171 -2.1341 2.90108
lowerneck -32.8321 3.21906 6.70759
upperneck 37.8964 3.63548 -1.63253
head 20.8479 2.68609 -0.806788
rclavicle 2.61402e-014 3.18055e-014
rhumerus -67.9587 5.44503 -87.4847
rradius 88.1892
rwrist 5.37664
rhand -10.6475 -1.62944
rfingers 7.12502
rthumb 15.3601 -31.0389
lclavicle 2.61402e-014 3.18055e-014
lhumerus -39.6342 -28.4229 97.9458
lradius 103.36
lwrist -19.2676
lhand -15.2234 6.44839
lfingers 7.12502
lthumb 10.9493 36.1429
rfemur -38.1294 -4.3875 15.8815
rtibia 76.3266
rfoot 1.10727 -20.2718
rtoes -19.6915
lfemur -7.53064 -5.6634 -31.3112
ltibia 34.8771
lfoot 2.72423 13.4541
ltoes -13.1468
21
root 15.9893 15.8405 19.1779 -171.305 1.33459 174.808
lowerback 0.0609316 -3.79614 -9.29576
upperback 0.949559 -4.82153 -1.91627
thorax 1.56507 -2.41902 3.10781
lowerneck -32.8924 3.59091 7.08506
upperneck 38.0098 4.22935 -2.10388
head 21.0118 2.88903 -0.951926
rclavicle -6.06293e-015 4.05521e-014
rhumerus -68.7121 5.58588 -87.0921
rradius 88.6188
rwrist 4.82503
rhand -10.7664 -1.65847
rfingers 7.12502
rthumb 15.2455 -31.0767
lclavicle -6.06293e-015 4.05521e-014
lhumerus -39.438 -29.0198 97.8707
lradius 103.909
lwrist -19.1263
lhand -15.3388 6.52325
lfingers 7.12502
lthumb 10.838 36.2236
rfemur -39.4223 -4.25385 16.0484
rtibia 73.7013
rfoot 1.08759 -20.1011
rtoes -19.9901
lfemur -6.36879 -5.56719 -31.2066
ltibia 33.5856
lfoot 4.4671 11.8009
ltoes -13.1968
22
root 15.9967 15.941 18.8653 -170.957 1.1497 174.93
lowerback -0.114711 -4.18257 -9.26415
upperback 0.824645 -5.34442 -1.6777
thorax 1.61692 -2.68699 3.30718
lowerneck -32.8885 3.93011 7.40717
upperneck 38.1202 4.79277 -2.51144
head 21.1595 3.08503 -1.06298
rclavicle 4.04527e-014 1.03368e-014
rhumerus -69.3673 5.67184 -86.6751
rradius 89.0008
rwrist 4.48025
rhand -10.8627 -1.65937
rfingers 7.12502
rthumb 15.1528 -31.0846
lclavicle 4.04527e-014 1.03368e-014
lhumerus -39.3155 -29.6059 97.757
lradius 104.413
lwrist -19.142
lhand -15.3711 6.4624
lfingers 7.12502
lthumb 10.8068 36.1644
rfemur -40.5168 -4.0815 16.1871
rtibia 70.7451
rfoot 1.23782 -19.871
rtoes -20.3261
lfemur -5.20198 -5.41181 -31.0685
ltibia 32.1799
lfoot 6.40108 10.0758
ltoes -13.116
23
root 16.0044 16.0433 18.5479 -170.606 0.990844 175.053
lowerback -0.299507 -4.54255 -9.22528
upperback 0.68161 -5.83145 -1.43792
thorax 1.65342 -2.93548 3.50208
lowerneck -32.7942 4.22304 7.63963
upperneck 38.2688 5.32919 -2.82734
head 21.3056 3.27879 -1.1177
rclavicle 5.26779e-015 1.43125e-014
rhumerus -69.9684 5.71356 -86.226
rradius 89.3484
rwrist 4.3382
rhand -10.9075 -1.61353
rfingers 7.12502
rthumb 15.1096 -31.042
lclavicle 5.26779e-015 1.43125e-014
lhumerus -39.3116 -30.1536 97.6352
lradius 104.875
lwrist -19.3536
lhand -15.3289 6.27257
lfingers 7.12502
lthumb 10.8475 35.9724
rfemur -41.417 -3.87178 16.2798
rtibia 67.4944
rfoot 1.57875 -19.6159
rtoes -20.5534
lfemur -4.01932 -5.21194 -30.9045
ltibia 30.6606
lfoot 8.52234 8.3435
ltoes -12.8954
24
root 16.0125 16.1448 18.2258 -170.252 0.845246 175.204
lowerback -0.524046 -4.87688 -9.14487
upperback 0.540794 -6.27947 -1.19905
thorax 1.70799 -3.16457 3.66854
lowerneck -32.525 4.49119 7.85582
upperneck 38.3294 5.84101 -3.12001
head 21.3462 3.46616 -1.16693
rclavicle -8.0309e-014 2.14687e-014
rhumerus -70.5025 5.6975 -85.753
rradius 89.6849
rwrist 4.36622
rhand -10.8823 -1.54292
rfingers 7.12502
rthumb 15.1338 -30.9696
lclavicle -8.0309e-014 2.14687e-014
lhumerus -39.4073 -30.6911 97.5032
lradius 105.305
lwrist -19.5872
lhand -15.2513 5.94672
lfingers 7.12502
lthumb 10.9224 35.6426
rfemur -42.1237 -3.61785 16.3565
rtibia 63.99
rfoot 2.11649 -19.3731
rtoes -20.7301
lfemur -2.81322 -4.98577 -30.6826
ltibia 29.0395
lfoot 10.8282 6.65248
ltoes -12.5047
25
root 16.0201 16.2442 17.8996 -169.883 0.721635 175.377
lowerback -0.785627 -5.18361 -9.01961
upperback 0.386865 -6.68761 -0.960314
thorax 1.76143 -3.37256 3.8068
lowerneck -32.1349 4.7245 8.03097
upperneck 38.3204 6.32368 -3.39881
head 21.3049 3.6402 -1.21225
rclavicle 1.23147e-013 1.51076e-014
rhumerus -70.9921 5.64487 -85.2539
rradius 90.0102
rwrist 4.51828
rhand -10.7916 -1.44565
rfingers 7.12502
rthumb 15.2212 -30.8657
lclavicle 1.23147e-013 1.51076e-014
lhumerus -39.6082 -31.2222 97.3935
lradius 105.693
lwrist -19.7896
lhand -15.1431 5.5406
lfingers 7.12502
lthumb 11.0267 35.231
rfemur -42.672 -3.30825 16.3993
rtibia 60.2868
rfoot 2.86133 -19.1614
rtoes -20.726
lfemur -1.60291 -4.74189 -30.4205
ltibia 27.3348
lfoot 13.3102 5.0317
ltoes -11.9135
